<svg width="148" height="60" viewBox="0 0 148 60" fill="none" xmlns="http://www.w3.org/2000/svg">
<rect x="76" y="16" width="14" height="14" rx="4" fill="#D23EEA"/>
<rect x="60" y="16" width="14" height="14" rx="4" fill="#0080FF"/>
<rect x="76" width="14" height="14" rx="4" fill="#FF374C"/>
<rect x="60" width="14" height="14" rx="4" fill="#F59300"/>
<circle cx="67" cy="7" r="2" fill="white"/>
<rect x="65" y="7" width="4" height="7" fill="url(#paint0_linear_5_85)"/>
<circle cx="67" cy="23" r="2" fill="white"/>
<rect x="69" y="23" width="4" height="7" transform="rotate(-180 69 23)" fill="url(#paint1_linear_5_85)"/>
<rect x="67" y="25" width="4" height="7" transform="rotate(-90 67 25)" fill="url(#paint2_linear_5_85)"/>
<circle cx="83" cy="23" r="2" fill="white"/>
<rect x="83" y="21" width="4" height="7" transform="rotate(90 83 21)" fill="url(#paint3_linear_5_85)"/>
<path fill-rule="evenodd" clip-rule="evenodd" d="M4 56V42C4 40.8954 3.10457 40 2 40C0.895431 40 0 40.8954 0 42V58C0 59.1046 0.895431 60 2 60H14C15.1046 60 16 59.1046 16 58C16 56.8954 15.1046 56 14 56H4Z" fill="black"/>
<circle cx="26" cy="50" r="8" stroke="black" stroke-width="4"/>
<path fill-rule="evenodd" clip-rule="evenodd" d="M46 40H38C36.8954 40 36 40.8954 36 42C36 43.1046 36.8954 44 38 44H46H54C55.1046 44 56 43.1046 56 42C56 40.8954 55.1046 40 54 40H46ZM48 47V58C48 59.1046 47.1046 60 46 60C44.8954 60 44 59.1046 44 58V47C44 45.8954 44.8954 45 46 45C47.1046 45 48 45.8954 48 47Z" fill="black"/>
<path fill-rule="evenodd" clip-rule="evenodd" d="M62 42C62 40.8954 61.1046 40 60 40C58.8954 40 58 40.8954 58 42V50C58 55.5228 62.4772 60 68 60C73.5228 60 78 55.5228 78 50V42C78 40.8954 77.1046 40 76 40C74.8954 40 74 40.8954 74 42V50C74 53.3137 71.3137 56 68 56C64.6863 56 62 53.3137 62 50V42Z" fill="black"/>
<path fill-rule="evenodd" clip-rule="evenodd" d="M96 42C96 43.1046 95.1046 44 94 44H86C84.8954 44 84 44.8954 84 46C84 47.1046 84.8954 48 86 48H90C93.3137 48 96 50.6863 96 54C96 57.3137 93.3137 60 90 60H82C80.8954 60 80 59.1046 80 58C80 56.8954 80.8954 56 82 56H90C91.1046 56 92 55.1046 92 54C92 52.8954 91.1046 52 90 52H86C82.6863 52 80 49.3137 80 46C80 42.6863 82.6863 40 86 40H94C95.1046 40 96 40.8954 96 42Z" fill="black"/>
<path fill-rule="evenodd" clip-rule="evenodd" d="M109.427 40.5992C109.065 40.2294 108.559 40 108 40C106.895 40 106 40.8954 106 42V58C106 59.1046 106.895 60 108 60C109.105 60 110 59.1046 110 58V46.8286L114.587 51.4158L114.587 51.4157C114.949 51.7768 115.448 52 116 52C116.551 52 117.05 51.7769 117.412 51.4162L117.416 51.4199L122 46.8359V58C122 59.1046 122.895 60 124 60C125.105 60 126 59.1046 126 58V42C126 40.8954 125.105 40 124 40C123.437 40 122.928 40.2326 122.565 40.6069L116 47.1718L109.427 40.5992Z" fill="black"/>
<path fill-rule="evenodd" clip-rule="evenodd" d="M130 40C131.105 40 132 40.8954 132 42V50C132 53.3137 134.686 56 138 56C141.314 56 144 53.3137 144 50V47C144 45.8954 144.895 45 146 45C147.105 45 148 45.8954 148 47V50C148 55.5228 143.523 60 138 60C132.477 60 128 55.5228 128 50V42C128 40.8954 128.895 40 130 40ZM148 42C148 40.8954 147.105 40 146 40C144.895 40 144 40.8954 144 42C144 43.1046 144.895 44 146 44C147.105 44 148 43.1046 148 42Z" fill="black"/>
<defs>
<linearGradient id="paint0_linear_5_85" x1="67" y1="7" x2="67" y2="14" gradientUnits="userSpaceOnUse">
<stop stop-color="white"/>
<stop offset="1" stop-color="white" stop-opacity="0.1"/>
</linearGradient>
<linearGradient id="paint1_linear_5_85" x1="71" y1="23" x2="71" y2="30" gradientUnits="userSpaceOnUse">
<stop stop-color="white"/>
<stop offset="1" stop-color="white" stop-opacity="0.1"/>
</linearGradient>
<linearGradient id="paint2_linear_5_85" x1="69" y1="25" x2="69" y2="32" gradientUnits="userSpaceOnUse">
<stop stop-color="white"/>
<stop offset="1" stop-color="white" stop-opacity="0.1"/>
</linearGradient>
<linearGradient id="paint3_linear_5_85" x1="85" y1="21" x2="85" y2="28" gradientUnits="userSpaceOnUse">
<stop stop-color="white"/>
<stop offset="1" stop-color="white" stop-opacity="0.1"/>
</linearGradient>
</defs>
</svg>
