<?xml version="1.0" encoding="utf-8"?>
<!-- Generator: Adobe Illustrator 22.1.0, SVG Export Plug-In . SVG Version: 6.00 Build 0)  -->
<svg version="1.1" id="prime_payments" xmlns="http://www.w3.org/2000/svg" x="0px"
     y="0px"
     viewBox="0 0 347 347" style="enable-background:new 0 0 1120 347;" xml:space="preserve">
<style type="text/css">
	.st0{fill:#FF9E00;}
	.st1{fill:#F4F4F4;}
	.st2{fill:#1F19FF;}
</style>
    <g id="_x23_ff9e00ff">
	<path class="st0" d="M126.6,7.3c34.6-10.2,72.3-8.5,106.2,3.9c31.3,11.6,59.2,32.3,79.1,59.1C334.8,100.7,347,139,346.3,177
		c0,3.7,0.2,7.5-0.7,11.2c-2.4,29.8-13,58.7-29.9,83.3c-27.8,40.6-73.7,68.5-122.7,73.7c-4.7,0.1-9.3,1.8-14,1.2c-5-0.6-10,0.4-15,0
		c-6.5-0.6-13-2.4-19.5-2.2c0-0.1,0-0.4,0-0.6c19.8,0.4,39.8-1.6,58.7-8c18.3-6,35.3-16,49.5-29c16.3-15.2,28.8-34.4,35.9-55.5
		c2.4-6.8,4.1-13.8,5.6-20.8c2.5-16.3,3.8-32.9,1.2-49.2c-2.9-19.7-11.1-38.5-23.1-54.4C257,106.3,233.7,91.1,208,88.4
		c-8.4,0-16.9-0.8-25,1.4c-19.4,4.2-36.9,15.4-50.4,29.7c-7.3,6.8-12.5,15.4-19.5,22.4c-11,11.3-25.2,20.3-41.1,22.6
		c-7,0.1-14.4,1-21.1-1.5c-12.7-3.6-23.6-13.3-28.8-25.5c-4.4-10.1-5.6-21.6-3-32.3c3.7-19.7,16-36.4,29.4-50.7
		C69.7,32.2,96.9,15.6,126.6,7.3z"/>
</g>
    <g id="_x23_1f19ffff">
	<path class="st2" d="M177.8,139.1c11.6-6.9,25.7-11.8,39.3-8.6c12.2,2.6,22.4,11.1,28.9,21.5c9.7,15.4,13.2,34,12.4,52
		c-1.5,31.6-16.6,62.1-40.2,83.2c-20.4,18.1-47.5,26.7-74.3,29c-10,0.1-20.1,0.7-30-1c-28.1-3.4-55.6-15.4-75.4-35.9
		c-15.4-16.7-24.9-38-31.3-59.7c-4.8-17.1-6.7-35-6.5-52.8c1-6.8,0.7-13.6,2.2-20.3c0.3-1.7,1.3-3.6,0.3-5.2
		c0.4-0.6,0.9-1.1,1.3-1.7c0-0.7,0-2,0.1-2.7c0.1,1.6,0.2,3.2-0.1,4.9c-1.1,7.4,0.2,14.9,1.7,22.1c2.9,12.6,10.9,24,21.8,31
		c9.7,6.4,21.5,8.8,33,8.5c15.2,0.6,30.5-2.7,44.4-9c13.6-6.2,25.7-15.2,36.8-25.1C153.7,158.9,164.2,147,177.8,139.1z"/>
</g>
</svg>
